<svg xmlns="http://www.w3.org/2000/svg" xml:space="preserve" viewBox="0 0 512 512"><path d="M495.026 173.549c-5.137-2.336-11.188-1.435-15.438 2.285L278.777 351.87c-22.73 19.922-56.828 19.431-78.979-1.137l-67.47-62.662c-5.424-5.054-13.811-5.144-19.364-.226L17.05 372.941a25.372 25.372 0 0 0-8.53 18.972v48.82c0 7.952 6.437 14.399 14.389 14.399h466.179c7.952 0 14.394-6.447 14.394-14.399V186.668a14.404 14.404 0 0 0-8.456-13.119z"/><path d="m34.244 266.348 60.4-49.665c9.61 7.52 21.556 12.188 34.707 12.188 12.815 0 24.501-4.429 33.999-11.607l25.228 24.977c-1.547 5.159-2.622 10.52-2.622 16.188 0 31.254 25.339 56.593 56.599 56.593 31.265 0 56.604-25.339 56.604-56.593 0-5.684-1.094-11.068-2.658-16.244l99.81-81.716c9.176 6.367 20.27 10.15 32.277 10.15 31.359 0 56.878-25.517 56.878-56.875 0-31.359-25.519-56.875-56.878-56.875-31.358 0-56.872 25.516-56.872 56.875a56.342 56.342 0 0 0 4.647 22.416l-97.102 79.496c-9.92-8.51-22.637-13.838-36.707-13.838-13.828 0-26.303 5.144-36.142 13.369l-24.065-23.641c2.205-6.035 3.608-12.468 3.608-19.27 0-31.271-25.34-56.61-56.604-56.61s-56.604 25.339-56.604 56.61c0 6.649 1.354 12.928 3.447 18.851l-61.947 50.945c-6.696 5.52-7.66 15.431-2.156 22.134 5.537 6.695 15.421 7.655 22.153 2.142zM428.588 88.307c14.021 0 25.438 11.405 25.438 25.436 0 14.021-11.416 25.426-25.438 25.426-14.021 0-25.433-11.405-25.433-25.426 0-14.031 11.412-25.436 25.433-25.436zM242.555 233.032c14.008 0 25.371 11.365 25.371 25.386 0 14.021-11.363 25.387-25.371 25.387-14.039 0-25.401-11.365-25.401-25.387-.001-14.021 11.362-25.386 25.401-25.386zM129.352 146.88c14.008 0 25.371 11.365 25.371 25.389 0 14.021-11.363 25.387-25.371 25.387-14.038 0-25.401-11.365-25.401-25.387-.001-14.024 11.362-25.389 25.401-25.389z"/></svg>