<svg xmlns="http://www.w3.org/2000/svg" xml:space="preserve" id="_x32_" version="1.1" viewBox="0 0 512 512"><path d="M164.893 89.791c13.875 0 25.126-11.243 25.126-25.134V25.118C190.019 11.252 178.768 0 164.893 0s-25.135 11.252-25.135 25.118v39.538c0 13.892 11.26 25.135 25.135 25.135zM350.184 89.791c13.867 0 25.126-11.243 25.126-25.134V25.118C375.31 11.252 364.05 0 350.184 0c-13.875 0-25.135 11.252-25.135 25.118v39.538c-.001 13.892 11.26 25.135 25.135 25.135z" class="st0"/><path d="M437.25 35.807h-39.865v28.849c0 26.04-21.169 47.218-47.201 47.218s-47.209-21.178-47.209-47.218V35.807h-90.881v28.849c0 26.04-21.178 47.218-47.2 47.218-26.032 0-47.21-21.178-47.21-47.218V35.807H74.75c-38.977 0-70.575 31.599-70.575 70.575v335.043C4.175 480.401 35.773 512 74.75 512h362.5c38.976 0 70.575-31.599 70.575-70.575V106.382c0-38.976-31.599-70.575-70.575-70.575zm36.234 405.618c0 19.978-16.256 36.235-36.235 36.235H74.75c-19.979 0-36.235-16.257-36.235-36.235V150.984h434.969v290.441z" class="st0"/><path d="M174.928 382.512h63.591v63.591h-63.591zM174.928 283.96h63.591v63.591h-63.591zM76.385 382.512h63.582v63.591H76.385zM76.385 283.96h63.582v63.591H76.385zM372.032 185.417h63.583v63.582h-63.583zM273.48 185.417h63.591v63.582H273.48zM350.041 293.216l-18.914-14.706-34.441 44.301-20.448-16.357-14.965 18.688 39.404 31.531zM372.032 283.96h63.583v63.591h-63.583zM273.48 382.512h63.591v63.591H273.48zM174.928 185.417h63.591v63.582h-63.591z" class="st0"/></svg>