<svg xmlns="http://www.w3.org/2000/svg" viewBox="0 0 100 100"><path fill="#D3D3D3" stroke="#333" stroke-width="3" d="M25 40v40c0 5 5 10 15 10h20c10 0 15-5 15-10V40Z"/><path stroke="#333" stroke-linecap="round" stroke-width="4" d="M20 40h60"/><path fill="none" stroke="#333" stroke-linecap="round" stroke-width="3" d="M20 45c-10 0-10-10 0-10M80 45c10 0 10-10 0-10"/><path fill="#E0E0E0" stroke="#333" stroke-width="3" d="M30 25c0-10 40-10 40 0l5 10H25Z"/><circle cx="50" cy="20" r="3" fill="#333"/><path fill="none" stroke="#999" stroke-linecap="round" stroke-width="2" d="M40 15c0-5 5-5 5-10M50 15c0-10 5-10 5-15M60 15c0-5 5-5 5-10"/></svg>